<?xml version="1.0" encoding="utf-8"?>
<!-- Generator: Adobe Illustrator 18.1.0, SVG Export Plug-In . SVG Version: 6.00 Build 0)  -->
<!DOCTYPE svg PUBLIC "-//W3C//DTD SVG 1.1//EN" "http://www.w3.org/Graphics/SVG/1.1/DTD/svg11.dtd">
<svg version="1.1" id="Layer_1" xmlns="http://www.w3.org/2000/svg" xmlns:xlink="http://www.w3.org/1999/xlink" x="0px" y="0px"
	 viewBox="0 0 50 50" enable-background="new 0 0 50 50" width="50px" height="50px" xml:space="preserve">
<g>
	<path fill="#0066FF" d="M49.5,0.5c-2.4,2.3-4.7,4.7-7.1,7c-0.1,0.1-0.2,0-0.3-0.1c-2.7-2.6-6-4.6-9.5-5.8C28.5,0.3,24,0.1,19.8,1.1
		c-7.5,1.6-14.1,7-17.1,14.1c0,0,0,0,0,0c-0.3,0.5-0.4,1.1-0.4,1.7c0,2,1.6,3.7,3.7,3.7c1.7,0,3.2-1.2,3.6-2.8
		c2.2-4.6,6.4-8.1,11.4-9.4c5.7-1.4,12.2,0.1,16.3,4.4c-2.4,2.4-4.9,4.7-7.3,7.1c6.5,0,13,0,19.5,0C49.5,13.4,49.5,6.9,49.5,0.5z"/>
	<path fill="#0066FF" d="M44.2,29.5c-1.6,0-3,1-3.5,2.5l0,0c-2.1,4.7-6.3,8.3-11.3,9.7c-5.8,1.6-12.4,0-16.7-4.3
		c2.4-2.4,4.9-4.7,7.2-7.1c-6.5,0-13.1,0-19.6,0c0,6.4,0,12.8,0,19.2c2.4-2.4,4.8-4.8,7.2-7.2c1.5,1.5,3.3,2.9,5.1,3.9
		c6,3.5,13.5,4.2,20.1,2c6.3-2.1,11.6-6.9,14.4-13c0.4-0.6,0.6-1.3,0.6-2.1C47.9,31.2,46.2,29.5,44.2,29.5z"/>
</g>
</svg>
